<?xml version="1.0" encoding="utf-8"?>
<!-- Svg Vector Icons : http://www.onlinewebfonts.com/icon -->
<!DOCTYPE svg PUBLIC "-//W3C//DTD SVG 1.1//EN" "http://www.w3.org/Graphics/SVG/1.1/DTD/svg11.dtd">
<svg version="1.1" xmlns="http://www.w3.org/2000/svg" xmlns:xlink="http://www.w3.org/1999/xlink" x="0px" y="0px" viewBox="0 0 256 256" enable-background="new 0 0 256 256" xml:space="preserve">
<metadata> Svg Vector Icons : http://www.onlinewebfonts.com/icon </metadata>
<g><g><path fill="#000000" d="M209.1,246c4.1,0,7.4-3.3,7.4-7.4V39.5c0-4.1-3.3-7.4-7.4-7.4h-36l-9-18.1c-1.3-2.5-3.8-4.1-6.6-4.1h-59c-2.8,0-5.3,1.6-6.6,4.1l-9,18.1h-36c-4.1,0-7.4,3.3-7.4,7.4v199.1c0,4.1,3.3,7.4,7.4,7.4H209.1z M103.1,24.7h49.9l14.8,29.5H88.3L103.1,24.7z M54.2,46.9h21.3l-5.7,11.4c-1.1,2.3-1,5,0.3,7.2c1.3,2.2,3.7,3.5,6.3,3.5h103.3c0,0,0,0,0.1,0c4.1,0,7.4-3.3,7.4-7.4c0-1.5-0.5-3-1.3-4.1l-5.3-10.6h21.3v184.4H54.2V46.9z"/><path fill="#000000" d="M152.3,115.4l-31.6,31.7l-16.9-16.9c-2.9-2.9-7.5-2.9-10.4,0c-2.9,2.9-2.9,7.5,0,10.4l22.1,22.1c1.4,1.4,3.3,2.2,5.2,2.2s3.8-0.7,5.2-2.2l36.8-36.9c2.9-2.9,2.9-7.5,0-10.4C159.8,112.5,155.2,112.5,152.3,115.4z"/></g></g>
</svg>